PathFileType	4	(X/Y/Z)	 s09c0203.trc
DataRate	CameraRate	NumFrames	NumMarkers	Units	OrigDataRate	OrigDataStartFrame	OrigNumFrames
200	200	4	50	mm	200	1251	2000
Frame#	Time	racr			lacr			c7			jug			rlel			rdr			llel			ldr			s2			lic			ric			lasi			rasi			rpsi			lpsi			rgt			lgt			rth1			rth2			rth3			rth4			rlfc			rmfc			rsh1			rsh2			rsh3			rsh4			rlmal			rmmal			rcal			rtoe			rmt5			lth1			lth2			lth4			lth3			llfc			lmfc			llmal			lmmal			lcal			lmt5			lsh1			lsh2			lsh3			lsh4			ltoe			SBIKE			LBIKE			RBIKE			
		X1	Y1	Z1	X2	Y2	Z2	X3	Y3	Z3	X4	Y4	Z4	X5	Y5	Z5	X6	Y6	Z6	X7	Y7	Z7	X8	Y8	Z8	X9	Y9	Z9	X10	Y10	Z10	X11	Y11	Z11	X12	Y12	Z12	X13	Y13	Z13	X14	Y14	Z14	X15	Y15	Z15	X16	Y16	Z16	X17	Y17	Z17	X18	Y18	Z18	X19	Y19	Z19	X20	Y20	Z20	X21	Y21	Z21	X22	Y22	Z22	X23	Y23	Z23	X24	Y24	Z24	X25	Y25	Z25	X26	Y26	Z26	X27	Y27	Z27	X28	Y28	Z28	X29	Y29	Z29	X30	Y30	Z30	X31	Y31	Z31	X32	Y32	Z32	X33	Y33	Z33	X34	Y34	Z34	X35	Y35	Z35	X36	Y36	Z36	X37	Y37	Z37	X38	Y38	Z38	X39	Y39	Z39	X40	Y40	Z40	X41	Y41	Z41	X42	Y42	Z42	X43	Y43	Z43	X44	Y44	Z44	X45	Y45	Z45	X46	Y46	Z46	X47	Y47	Z47	X48	Y48	Z48	X49	Y49	Z49	X50	Y50	Z50	
1251	6.2550	437.578385	1228.780812	-16.109208	540.049268	1215.307009	-357.805702	475.364762	1307.263500	-180.464623	457.970659	1171.909586	-198.094469	459.856662	989.832308	68.336220	675.206332	908.205588	-35.442471	441.741149	1007.713382	-529.965046	650.665055	903.823003	-452.238499	6.515588	1111.806612	-289.414482	159.320689	1108.446207	-421.702930	125.677029	1133.188083	-120.445797	197.354343	1058.131084	-388.065857	181.684246	1091.771969	-136.077150	21.974406	1146.499825	-230.150717	40.339712	1146.454422	-339.454534	137.664435	1020.332128	-78.562312	120.959090	962.635227	-449.266003	271.781053	977.244322	-93.500889	357.296922	969.658904	-108.928656	427.163264	915.329709	-112.154951	365.734323	991.103882	-138.129115	499.381434	839.778716	-139.622765	475.883760	812.512556	-239.091229	419.265662	785.618987	-104.860379	369.357145	711.000251	-108.297941	291.295227	672.364079	-98.138721	386.761344	689.914464	-136.580486	214.473151	601.495456	-86.563885	215.075972	606.950673	-164.142589	128.974762	613.758082	-116.300347	334.647915	448.079521	-133.501783	262.191308	484.713666	-65.542407	188.212218	842.697804	-444.017215	244.820172	780.673417	-431.025281	276.672412	796.925992	-417.432238	263.306644	692.605631	-420.501726	294.847187	602.655174	-400.365222	292.226723	586.602128	-303.252663	235.900235	241.823861	-423.324124	247.122586	253.307985	-345.660367	169.488262	201.562429	-382.168829	343.069200	153.418900	-432.305017	271.472378	506.236239	-428.342976	282.452862	420.863791	-421.863143	248.686627	338.615036	-423.888485	306.638792	419.322209	-390.096030	427.909417	176.434243	-360.062264	-65.290013	850.971247	-241.469099	20.957337	84.402317	-442.285548	21.061641	84.152745	-43.987485	
1252	6.2600	434.923294	1229.856762	-14.367279	541.488364	1213.882612	-354.833833	474.883322	1307.197586	-178.179645	457.180637	1171.261272	-194.896528	459.153956	990.571035	69.426839	674.106092	908.161272	-35.738256	443.805623	1008.520871	-529.432849	652.083657	903.756870	-451.229093	6.672184	1111.722643	-292.482415	161.377351	1106.379493	-422.377396	124.351811	1135.490114	-122.246280	198.555646	1056.462974	-388.188680	180.526075	1094.019183	-136.832657	21.648639	1147.269742	-233.361559	41.118913	1146.296758	-342.734955	136.864238	1024.384866	-79.119192	122.878938	960.807324	-450.718202	271.274987	983.528595	-94.423381	356.944592	976.788567	-110.283060	428.538304	923.727566	-112.626856	364.592608	998.276586	-139.887144	501.922829	848.431729	-138.749751	478.182103	819.801841	-238.008528	420.957645	792.663661	-104.632724	372.844457	716.891239	-107.580555	295.587275	676.592120	-97.743693	390.997478	696.244122	-135.238583	220.122769	604.072508	-86.319434	220.607419	609.440411	-163.680951	134.130604	613.627797	-115.791307	345.219293	454.873417	-133.598434	271.663796	488.995087	-65.283588	188.582043	842.071532	-444.195450	244.331348	779.489734	-430.631600	276.165897	795.394573	-416.419404	261.998050	691.261256	-420.561117	291.692957	601.072516	-399.511321	288.935950	585.023789	-302.161288	228.304339	241.409236	-422.966856	239.603086	252.347755	-345.517506	161.159512	202.789000	-381.802789	333.413000	150.411219	-432.152686	267.567153	505.320305	-427.513289	277.319317	419.722475	-420.999388	242.439285	338.061673	-423.341876	301.372010	417.577064	-388.843904	418.866516	170.981631	-359.900384	-65.338923	850.982601	-241.461933	20.941574	84.410544	-442.293101	21.059631	84.159116	-43.974303	
1253	6.2650	432.434450	1230.937156	-12.912048	542.794274	1212.604419	-352.274540	474.411315	1306.750896	-176.926949	456.959389	1170.818284	-192.428382	458.407395	991.319560	70.426273	673.095056	908.124147	-35.998025	446.020667	1009.094941	-528.720972	653.618158	903.733099	-450.042222	12.494329	1107.227502	-296.450372	163.206076	1104.421870	-422.872538	123.117151	1137.939465	-123.918513	199.543058	1055.008030	-388.220752	179.304605	1096.164902	-137.479669	21.148016	1148.592948	-236.183305	41.544852	1146.490038	-345.409050	136.220510	1028.547159	-79.524771	124.672016	959.095630	-452.019905	270.555172	989.600636	-95.228302	356.189220	983.629011	-111.256138	428.513347	931.511666	-112.899888	363.473809	1004.736883	-141.300624	503.677429	856.598750	-137.961817	480.338512	826.698389	-237.100899	422.325181	798.848929	-104.103105	376.028410	721.693729	-106.744605	299.620088	679.943455	-97.007405	394.833194	701.423409	-134.178253	225.739960	605.550577	-85.914041	225.871664	610.988843	-163.232056	139.432886	612.528902	-114.801684	355.832300	461.384395	-133.722826	281.138377	492.442822	-65.057458	188.908350	841.818918	-444.216999	244.089351	778.846817	-430.326426	275.876159	794.483455	-415.538623	260.986909	690.436383	-420.012929	289.215472	600.292203	-398.457810	286.830362	584.258186	-300.806794	220.824377	241.818311	-422.599581	232.117545	252.000082	-345.332838	152.893601	204.886015	-381.427085	323.649466	148.161360	-431.970022	264.301411	504.994797	-426.527646	272.605293	419.302411	-419.870408	236.613947	338.167418	-422.715747	296.637357	416.711083	-387.737310	409.673160	165.999833	-359.663219	-65.387018	850.974976	-241.450021	20.939729	84.417087	-442.302070	21.037115	84.171282	-43.981411	
1254	6.2700	430.477672	1231.911366	-11.777265	544.039112	1211.406857	-349.769806	474.035571	1306.461619	-175.433901	456.739447	1170.483659	-190.164688	457.591335	992.157571	71.241856	672.225027	908.144505	-36.289717	448.083758	1009.563620	-528.159570	655.183561	903.771619	-449.029730	5.092034	1113.523188	-298.282645	164.775660	1102.752098	-423.248085	122.024722	1140.454719	-125.511729	200.430146	1053.757332	-388.148166	178.106868	1098.208521	-138.114443	22.218227	1149.068867	-239.407404	40.842915	1147.562915	-347.441683	135.651975	1032.880565	-79.752146	126.100592	957.401374	-452.579617	269.606275	995.246777	-95.817237	355.248973	989.826502	-111.942238	428.066887	938.722778	-112.786206	362.212151	1010.575127	-142.300788	503.670837	864.102362	-136.904090	482.112043	832.855456	-236.093444	423.418116	803.632501	-103.823168	379.063652	725.651362	-105.939671	303.688351	681.911951	-96.511503	398.454417	705.645842	-133.195551	231.511838	605.978079	-85.457890	231.082394	611.702092	-162.585958	144.473126	610.095717	-114.452005	366.313783	467.256159	-133.848249	290.697247	495.294170	-64.723319	189.278636	842.092884	-444.093907	244.144368	778.688895	-429.861129	275.806817	794.180618	-414.596387	260.456867	690.133844	-419.239805	287.510789	600.064027	-397.211204	285.714895	584.132786	-299.326906	213.417370	242.917584	-422.119786	224.704376	252.266532	-345.103552	144.626646	207.775679	-380.874389	313.695754	146.486420	-431.732311	261.783452	505.209445	-425.329736	268.408869	419.384170	-418.595300	231.060982	338.883804	-421.934055	292.391069	416.313246	-386.546874	400.274555	161.623670	-359.477907	-65.418294	850.995169	-241.415872	20.934955	84.460525	-442.301203	21.012228	84.198262	-44.007172	
